<svg xmlns="http://www.w3.org/2000/svg" xmlns:xlink="http://www.w3.org/1999/xlink" width="142" height="1100" xmlns:v="https://vecta.io/nano"><style>.O{fill:none}.P{fill:#fff}.Q{fill-rule:evenodd}.R{stroke:#5d5d5d}.S{fill:#5d5d5d}.T{stroke-width:4}.U{fill:#555}.V{stroke-width:2}.W{stroke-linecap:round}.X{stroke:#555}.Y{stroke-width:1.5}.Z{stroke-width:.5}.a{stroke:transparent}.b{font-family:MyriadPro-Regular,Myriad Pro}</style><svg width="142" height="48"><defs><path id="C" d="M8.341 15.124c-.397-.009-.76.223-.919.587a.975.975 0 001.264 1.294.977.977 0 00.609-.905.967.967 0 00-.954-.977z"/><path id="D" d="M6.83 43.189l2.627-9.593A18.52 18.52 0 0134.768 8.314a18.52 18.52 0 01-9.265 34.554h-.008a18.5 18.5 0 01-8.849-2.254zm10.271-5.925l.562.333a15.37 15.37 0 007.834 2.145h.006a15.39 15.39 0 007.44-28.859 15.39 15.39 0 00-20.479 21.652l.366.582-1.555 5.674zm0 0"/><rect id="A" width="140" height="46" rx="2"/><mask id="B" x="-1" y="-1" width="142" height="48"><path d="M-1-1h142v48H-1z" class="P"/><use xlink:href="#A"/></mask></defs><g transform="translate(1 1)" class="O Q"><use mask="url(#B)" xlink:href="#A" class="R V"/><path d="M13.292 8C12.026 8 11 9.122 11 10.51v25.98c0 1.386 1.025 2.51 2.292 2.51h11.416C25.974 39 27 37.878 27 36.49V10.51C27 9.125 25.975 8 24.708 8H13.292zm-.792 4.066v22.868h13V12.066h-13zM19 37.984c.552 0 1-.455 1-1.017s-.448-1.016-1-1.016-1 .455-1 1.016.448 1.017 1 1.017zm-2-27.951c0 .28.172.508.398.508h3.204c.22 0 .398-.236.398-.508 0-.28-.172-.508-.398-.508h-3.204c-.22 0-.398.235-.398.508z" class="S"/><text font-size="12" letter-spacing=".24" fill="#606060" class="b"><tspan x="34.103" y="17.231">Available on the</tspan></text><text font-size="22.877" letter-spacing="-.81" fill="#606060" class="b"><tspan x="34.103" y="36.077">App Store</tspan></text></g></svg><svg width="142" height="48" y="48"><defs><rect id="E" width="140" height="46" rx="2" y="0"/><mask id="F" x="-1" y="-1" width="142" height="48"><path d="M-1-1h142v48H-1z" class="P"/><use xlink:href="#E"/></mask></defs><g transform="translate(1 1)" class="O Q"><use mask="url(#F)" xlink:href="#E" class="R V"/><path d="M96.811 32.635l-1.024.962-.706.387c-.711.322-1.434.403-2.077.403-.684 0-1.756-.043-2.85-.832-1.52-1.068-2.183-2.901-2.183-4.5 0-3.308 2.702-4.93 4.905-4.93.771 0 1.562.191 2.206.597 1.07.704 1.346 1.62 1.5 2.112l-5.034 2.027-1.649.128c.534 2.712 2.375 4.29 4.41 4.29 1.016 0 1.77-.33 2.463-.671 0 0 .138-.072.04.027zm-3.036-5.397c.409-.148.62-.276.62-.573 0-.852-.967-1.836-2.121-1.836-.856 0-2.462.664-2.462 2.969 0 .36.043.743.065 1.126l3.898-1.686zm-7.488 5.232c0 .829.149.958.852 1.022l1.095.105-.792.47H83.67c.495-.64.58-.703.58-1.13l-.008-13.165h-1.667l1.604-.77h3.062c-.664.383-.862.617-.948 1.363l-.005 12.104zm-5.851-7.299c.49.403 1.517 1.258 1.517 2.88 0 1.58-.894 2.325-1.795 3.03-.277.278-.6.58-.6 1.045 0 .471.324.728.557.919l.773.595c.94.79 1.797 1.516 1.797 2.99 0 2.008-1.949 4.032-5.632 4.032-3.102 0-4.602-1.473-4.602-3.052 0-.769.383-1.857 1.65-2.602 1.327-.81 3.126-.917 4.089-.98-.301-.388-.644-.793-.644-1.455 0-.361.109-.577.214-.831l-.684.045c-2.271 0-3.555-1.689-3.555-3.353 0-.982.449-2.07 1.371-2.86 1.221-1.002 2.677-1.175 3.833-1.175h4.412l-1.371.772h-1.33zm-1.518 9.475c-.175-.023-.28-.023-.492-.023-.194 0-1.351.042-2.247.342-.474.172-1.844.683-1.844 2.2 0 1.512 1.48 2.602 3.768 2.602 2.055 0 3.147-.982 3.147-2.304 0-1.089-.707-1.663-2.332-2.817zm.616-4.055c.495-.492.538-1.173.538-1.56 0-1.535-.918-3.925-2.698-3.925-.555 0-1.156.278-1.498.707-.361.444-.47 1.021-.47 1.576 0 1.43.836 3.8 2.676 3.8.536 0 1.113-.26 1.452-.598zm-12.373 3.753c-3.403 0-5.224-2.643-5.224-5.034 0-2.795 2.29-5.186 5.545-5.186 3.148 0 5.12 2.457 5.12 5.036 0 2.518-1.95 5.184-5.44 5.184zm2.678-1.727c.518-.683.643-1.535.643-2.366 0-1.88-.898-5.465-3.553-5.465-.707 0-1.418.275-1.93.725-.837.747-.986 1.685-.986 2.606 0 2.108 1.045 5.586 3.64 5.586.838 0 1.693-.404 2.186-1.086zm-14.072 1.727c-3.404 0-5.222-2.643-5.222-5.034 0-2.795 2.29-5.186 5.544-5.186 3.146 0 5.115 2.457 5.115 5.036.001 2.518-1.945 5.184-5.437 5.184zm2.678-1.727c.514-.683.642-1.535.642-2.366 0-1.88-.9-5.465-3.553-5.465-.71 0-1.413.275-1.927.725-.837.747-.986 1.685-.986 2.606 0 2.108 1.05 5.586 3.64 5.586.836 0 1.69-.404 2.184-1.086zm-9.261.986l-2.87.655c-1.163.182-2.207.344-3.313.344-5.537 0-7.646-4.063-7.646-7.242 0-3.883 2.989-7.482 8.107-7.482 1.083 0 2.126.159 3.075.416 1.504.422 2.207.94 2.647 1.245l-1.667 1.579-.703.157.501-.797c-.679-.661-1.927-1.88-4.295-1.88-3.167 0-5.556 2.399-5.556 5.902 0 3.762 2.728 7.301 7.102 7.301 1.286 0 1.947-.257 2.548-.498v-3.225l-3.03.162 1.606-.86h4.253l-.52.5c-.14.118-.159.159-.198.318-.02.182-.04.761-.04.965v2.44z" fill="#575757"/><path d="M102.983 32.726v5.436H101.9V24.33h1.083v1.574a4.309 4.309 0 013.492-1.825c2.685 0 4.494 2.031 4.494 5.246 0 3.193-1.81 5.266-4.494 5.266-1.414 0-2.68-.726-3.492-1.865zm6.823-3.4c0-2.424-1.267-4.272-3.514-4.272-1.395 0-2.73 1.094-3.31 2.046v4.428c.58.955 1.915 2.088 3.31 2.088 2.247 0 3.514-1.864 3.514-4.29zm2.642 5.016V20.51h1.083v13.832h-1.083zm13.235 2.925c.231.103.626.167.878.167.662 0 1.123-.27 1.538-1.225l.79-1.783-4.267-10.096h1.208l3.66 8.749 3.624-8.75h1.225l-5.204 12.215c-.54 1.258-1.39 1.864-2.556 1.864-.35 0-.811-.063-1.082-.145l.186-.996zm-3.163-2.954a18.397 18.397 0 01-.167-.91 5.964 5.964 0 01-.052-.78c-.372.544-.898.996-1.57 1.353s-1.31.534-2.187.534c-1.055 0-1.874-.259-2.459-.784s-.876-1.234-.876-2.133.425-1.626 1.271-2.183 1.941-.837 3.294-.837h2.526v-1.245c0-.716-.245-1.28-.734-1.689s-1.18-.616-2.074-.616c-.816 0-1.479.19-1.983.558-.5.375-.751.84-.751 1.402h-1.109l-.023-.054c-.04-.756.307-1.42 1.045-1.992s1.698-.86 2.882-.86 2.136.283 2.856.848 1.08 1.369 1.08 2.426v4.94a6.543 6.543 0 00.278 2.022h-1.247zm-3.843-.787c.92 0 1.58-.205 2.257-.61.672-.404 1.128-.93 1.368-1.566v-1.922h-2.538c-.97 0-1.772.214-2.404.645s-.953.951-.953 1.556c0 .57.203 1.028.607 1.374s.957.523 1.663.523z" fill="#434343"/><path d="M35.328 9.164c0-2.126 1.585-3.492 3.555-3.492 1.32 0 2.183.627 2.722 1.397l-.965.557a2.187 2.187 0 00-1.757-.901c-1.34 0-2.336 1.012-2.336 2.439 0 1.407.996 2.44 2.336 2.44.691 0 1.3-.314 1.605-.608V9.953h-2.031V8.911h3.209v2.52a3.664 3.664 0 01-2.783 1.235c-1.97 0-3.555-1.386-3.555-3.502zm7.807 3.371V5.782h4.64v1.043h-3.452v1.741h3.382V9.61h-3.382v1.884h3.453v1.042h-4.64zm7.929 0v-5.71h-2.05V5.784h5.29v1.043h-2.05v5.709zm7.37 0V5.782h1.187v6.753zm4.496 0v-5.71h-2.05V5.784h5.29v1.043h-2.05v5.709zm7.076-3.371c0-2.015 1.432-3.492 3.463-3.492 2.02 0 3.463 1.478 3.463 3.492s-1.443 3.492-3.463 3.492c-2.032 0-3.463-1.478-3.463-3.492zm5.707 0c0-1.397-.883-2.44-2.244-2.44-1.37 0-2.245 1.043-2.245 2.44 0 1.386.874 2.44 2.245 2.44 1.36 0 2.244-1.054 2.244-2.44zm7.329 3.371l-3.534-4.829v4.829H78.32V5.782h1.22l3.462 4.678V5.782h1.188v6.753z" fill="#4b4b4b"/><path d="M9.62 38.996c-.391-.106-.646-.493-.646-1.093V18.097c0-.555.216-.93.557-1.066l9.733 11.037-9.645 10.928zm1.339-.42l11.715-6.64-2.853-3.236-8.862 9.875zm11.796-14.464l-11.552-6.549 8.635 9.854 2.917-3.305zm.784.444l4.525 2.566c.857.486.865 1.269 0 1.759l-4.64 2.63-3.026-3.454 3.14-3.5z" class="S"/></g></svg><svg width="35" height="35" y="96"><defs><ellipse id="G" cx="17.5" cy="17.508" rx="17.5" ry="17.111"/><mask id="H" x="0" y="0" width="35" height="34.222" class="P"><use xlink:href="#G"/></mask></defs><g class="O Q"><use mask="url(#H)" xlink:href="#G" class="R T"/><path d="M12.668 21.791l.013-3.15 1.204-.014-.014-.972-3.476-.013v.985l.588.007.588.006.007 3.125.019 3.158c.01.025.131.031.535.026l.523-.007.013-3.15zm10.026-.222a4.89 4.89 0 01.042-.896.47.47 0 01.493-.37c.212 0 .347.08.437.261.058.114.063.163.072.586l.009.46h-.52c-.446 0-.52-.006-.533-.04zm.97 3.395c.508-.14.86-.48.992-.962.022-.082.048-.316.057-.519l.015-.37h-.98l-.012.332c-.014.376-.053.505-.193.625-.149.128-.422.137-.6.02-.21-.14-.263-.377-.252-1.145l.007-.544 2.028-.014-.013-.81c-.016-.904-.035-1.041-.19-1.362-.295-.608-1.113-.915-1.792-.673-.512.184-.815.514-.936 1.025-.043.18-.048.342-.048 1.665 0 1.622.006 1.688.174 2.02.302.591 1.056.9 1.742.712zm-4.015-.923a.349.349 0 00.135-.189c.04-.118.045-.268.039-1.659l-.057-1.63c-.122-.243-.431-.266-.715-.054l-.093.07v3.307l.093.069c.21.157.44.19.598.086zm.613.933c.154-.044.34-.223.424-.407.162-.351.162-.36.162-2.335l-.046-1.997c-.133-.561-.422-.806-.91-.77-.272.02-.486.127-.744.37a1.767 1.767 0 01-.223.193c-.01 0-.02-.537-.02-1.193v-1.193h-.951v7.313h.951v-.246c0-.164.01-.247.03-.247s.123.087.238.193c.37.341.69.435 1.09.32zm-5.064-.024a1.78 1.78 0 00.602-.409c.086-.086.172-.156.19-.156.026 0 .035.07.035.285v.285h.951v-5.42h-.951v4.181l-.205.2c-.163.159-.23.207-.331.234-.17.046-.278.014-.348-.104-.053-.088-.054-.128-.062-2.3l-.007-2.21h-.95v2.347c0 2.556.002 2.612.148 2.858.16.27.534.354.928.21zm.404 2.261l-1.626-.037-3.382-.186a1.883 1.883 0 01-1.003-.595c-.376-.454-.578-1.005-.675-1.853-.226-1.97-.221-4.27.014-6.172.103-.833.36-1.435.789-1.855.245-.24.481-.374.795-.453.681-.17 6.01-.307 9.25-.236l4.433.186c.695.078 1.184.43 1.522 1.1.255.506.336.9.44 2.114a23.59 23.59 0 01.086 2.67c-.017 1.327-.103 2.497-.232 3.153-.136.694-.457 1.286-.873 1.606-.32.248-.662.358-1.2.388a31.7 31.7 0 00-.45.028l-2.88.115-5.008.027zm-1.67-12.044a45.38 45.38 0 01.004-2.471c.03-.388-.037-.693-.32-1.472a36.453 36.453 0 01-.37-1.088l-.681-2.355a29.01 29.01 0 011.187.006c.005.005.176.615.38 1.357l.38 1.371c.004.013.125-.419.267-.96a89.79 89.79 0 01.474-1.764c.013-.012.161-.015.648-.012l.538.003-.012.084c-.01.069-.377 1.28-.762 2.508l-.237.78-.239.77-.077.241v1.502l-.046 1.514c-.097.026-1.117.013-1.134-.014zm6.954.09c-.265-.034-.42-.135-.527-.342-.133-.259-.133-.258-.133-2.842V9.662h1.071l.012 2.223c.012 2.414.009 2.358.156 2.394.135.033.285-.038.471-.224l.179-.179.007-2.107.006-2.107 1.071-.014v5.52l-.073.015a8.6 8.6 0 01-.964-.002c-.04-.01-.046-.046-.046-.263v-.25l-.153.145c-.35.335-.727.49-1.077.444zm-2.698-1.054c.184-.137.185-.148.194-1.7l-.033-1.575c-.05-.223-.138-.328-.31-.374-.224-.058-.428.067-.5.306-.053.184-.053 2.92.002 3.103.041.139.174.29.272.31a.508.508 0 00.376-.07h-.001zm-.42 1.053c-.48-.057-.92-.333-1.132-.711-.216-.385-.236-.586-.223-2.28l.066-1.583c.127-.448.372-.753.751-.937a1.572 1.572 0 011.575.092c.313.198.503.486.605.914.045.19.05.334.05 1.66 0 1.61-.008 1.704-.177 2.053-.162.337-.528.633-.91.737a2.063 2.063 0 01-.605.055z" class="S"/></g></svg><svg width="17" height="10" y="131"><path d="M15.414 1.414l-7 7-7-7" stroke="#b6b7b9" class="O V W"/></svg><svg width="10" height="17" y="141"><path d="M1.414 1.414l7 7-7 7" stroke="#b6b7b9" class="O V W"/></svg><svg width="19" height="23" y="158"><path d="M12.639 4.064h-10.8A1.84 1.84 0 00.002 5.901v15.5a1.84 1.84 0 001.837 1.837h10.8a1.84 1.84 0 001.837-1.837v-15.5a1.844 1.844 0 00-1.837-1.837zm.547 17.331a.55.55 0 01-.552.552h-10.8a.55.55 0 01-.552-.552V5.901a.55.55 0 01.552-.552h10.8a.55.55 0 01.552.552zM16.77 0H5.97a1.84 1.84 0 00-1.837 1.837.64.64 0 00.642.642.643.643 0 00.642-.642.55.55 0 01.552-.552h10.8a.55.55 0 01.552.552v15.5a.55.55 0 01-.552.552.642.642 0 00-.642.643.64.64 0 00.642.642 1.84 1.84 0 001.837-1.837v-15.5A1.84 1.84 0 0016.77 0z" fill="#b6b7b9"/></svg><svg width="50" height="50" y="181"><path d="M24.594 50H5a5.006 5.006 0 01-5-5V5a5.006 5.006 0 015-5h40a5.006 5.006 0 015 5v40a5.006 5.006 0 01-5 5H33.451V32.72h5.7a.858.858 0 00.849-.857l.71-6.9a.851.851 0 00-.251-.606.863.863 0 00-.606-.251h-6.402v-4.044c0-1.942.463-2.928 2.993-2.928h3.669a.857.857 0 00.856-.856V9.865a.858.858 0 00-.855-.857L34.667 9c-6.119 0-10.073 4.057-10.073 10.336V24.1h-5.476a.858.858 0 00-.857.857v6.9a.858.858 0 00.857.857h5.476V50z" fill="#475993"/></svg><svg width="35" height="35" y="231"><defs><circle id="I" cx="17.5" cy="17.5" r="17.5"/><mask id="J" x="0" y="0" width="35" height="35" class="P"><use xlink:href="#I"/></mask></defs><g class="O Q"><use mask="url(#J)" xlink:href="#I" class="R T"/><path d="M18.546 27.84h-3.88v-9.148h-1.939V15.54h1.939v-1.893c0-2.572 1.094-4.102 4.205-4.102h2.588V12.7h-1.618c-1.21 0-1.29.44-1.29 1.263l-.006 1.578h2.932l-.343 3.152h-2.589v9.149z" class="S"/></g></svg><svg width="21" height="15" y="266"><path d="M.5 2.5h20m-20 5h20m-20 5h20" class="O W X"/><g stroke="#f7f7f7" class="U"><circle cx="4.5" cy="2.5" r="2.5" stroke="none"/><circle cx="4.5" cy="2.5" r="2" class="O"/><circle cx="15.5" cy="7.5" r="2.5" stroke="none"/><circle cx="15.5" cy="7.5" r="2" class="O"/><circle cx="8.5" cy="12.5" r="2.5" stroke="none"/><circle cx="8.5" cy="12.5" r="2" class="O"/></g></svg><svg width="36" height="35" y="281"><defs><circle id="K" cx="17.5" cy="17.5" r="17.5"/><mask id="L" x="0" y="0" width="35" height="35" class="P"><use xlink:href="#K"/></mask></defs><g transform="translate(.333)" class="O Q"><use mask="url(#L)" xlink:href="#K" class="R T"/><path d="M14.488 26.936c-2.16 0-3.719-1.377-3.719-3.03 0-1.621 1.935-2.971 4.093-2.947.503.006.973.087 1.399.225 1.171.822 2.013 1.286 2.25 2.222.044.19.069.384.069.584 0 1.654-1.058 2.946-4.092 2.946m.567-9.698c-1.45-.044-2.827-1.633-3.076-3.55s.721-3.384 2.17-3.341 2.826 1.581 3.076 3.5-.722 3.435-2.17 3.39m3.003 2.84c-.508-.363-1.479-1.244-1.479-1.762 0-.61.172-.907 1.079-1.622.93-.732 1.588-1.762 1.588-2.958 0-1.426-.63-2.815-1.813-3.273h1.783l1.26-.917H14.85c-2.52 0-4.893 1.925-4.893 4.154 0 2.278 1.719 4.116 4.283 4.116l.521-.016c-.165.32-.286.683-.286 1.058 0 .633.338 1.147.766 1.566l-.974.01c-3.123 0-5.528 2.003-5.528 4.082 0 2.046 2.636 3.326 5.758 3.326 3.56 0 5.528-2.035 5.528-4.082 0-1.64-.482-2.624-1.968-3.682m8.182-2.673h-2.188V15.2h-1.763v2.205H20.1v1.776h2.189v2.206h1.763V19.18h2.188v-1.776" class="S"/></g></svg><svg width="28" height="20" y="316"><path d="M26.818 15.305L16.285 7.931a4.111 4.111 0 00-1.553-.666v-.849a3.26 3.26 0 10-4.075-3.154.815.815 0 101.63 0 1.63 1.63 0 111.63 1.63.815.815 0 00-.815.815v1.555a4.11 4.11 0 00-1.553.666L1.016 15.305a2.369 2.369 0 001.359 4.31H25.46a2.369 2.369 0 001.359-4.31zm-.654 2.163a.718.718 0 01-.7.517H2.374a.739.739 0 01-.424-1.344l10.534-7.379a2.5 2.5 0 012.867 0l10.533 7.373a.718.718 0 01.281.828z" class="U"/></svg><svg width="20" height="19" viewBox="0 0 18.927 17.597" y="336"><path d="M18.9 5.247C18.624 2.206 16.471 0 13.778 0a5.092 5.092 0 00-4.367 2.514A4.907 4.907 0 005.154 0C2.46 0 .308 2.206.032 5.247a5.41 5.41 0 00.161 1.994 8.553 8.553 0 002.62 4.373l6.594 5.984 6.707-5.983a8.554 8.554 0 002.62-4.373 5.422 5.422 0 00.166-1.995z" fill="#193db0"/></svg><svg width="20" height="19" viewBox="0 0 20.44 19.356" y="355"><path d="M19.656 5.997C19.38 2.956 17.227.75 14.534.75a5.092 5.092 0 00-4.367 2.514A4.907 4.907 0 005.91.75C3.216.75 1.064 2.956.788 5.997a5.41 5.41 0 00.161 1.994 8.553 8.553 0 002.62 4.373l6.594 5.984 6.707-5.983a8.554 8.554 0 002.62-4.373 5.422 5.422 0 00.166-1.995z" class="O X Y"/></svg><svg width="26" height="25" y="374"><path d="M21.856 12.057a.745.745 0 00-.754.755v10.31h-5.349v-4.21a.746.746 0 00-.727-.74h-3.867a.763.763 0 00-.768.74v4.21H5.056v-9.968a.74.74 0 00-.74-.714.74.74 0 00-.74.714v10.723a.732.732 0 00.727.728h6.857a.732.732 0 00.727-.728v-4.21h2.386v4.21a.74.74 0 00.754.728h6.83a.732.732 0 00.727-.728V12.812a.734.734 0 00-.206-.529.74.74 0 00-.521-.226zm4.101.588l-5.952-5.977V2.592a.76.76 0 00-.226-.537.75.75 0 00-.542-.215.734.734 0 00-.52.224.74.74 0 00-.207.528v2.58L13.6.234A.72.72 0 0013.093 0a.743.743 0 00-.535.234L.229 12.563a.71.71 0 00-.23.521c0 .198.083.387.23.521a.707.707 0 001.042 0L13.093 1.811l11.794 11.9a.73.73 0 00.535.193.83.83 0 00.535-.193.78.78 0 000-1.066z" class="U"/></svg><svg width="15" height="15" y="399"><path fill="#f76262" d="M7.5 0A7.5 7.5 0 1015 7.5 7.5 7.5 0 007.5 0zm0 14A6.5 6.5 0 1114 7.5 6.507 6.507 0 017.5 14z"/><path d="M6.358 5.127v-1.91L3.016 6.559l3.342 3.342V7.943a5.9 5.9 0 015.251 2.435 6.059 6.059 0 00-5.251-5.251z" class="U"/><path stroke="#f76262" d="M12.234 2.109L2.109 12.234" class="O"/></svg><svg width="36" height="35" y="414"><defs><path d="M17.5 35C27.165 35 35 27.165 35 17.5S27.165 0 17.5 0 0 7.835 0 17.5 7.835 35 17.5 35z" id="M"/><mask id="N" x="0" y="0" width="35" height="35" class="P"><use xlink:href="#M"/></mask></defs><g transform="translate(.667)" class="O Q"><use mask="url(#N)" xlink:href="#M" class="R T"/><path d="M22.38 9.545h-9.76a3.078 3.078 0 00-3.075 3.075v9.76a3.078 3.078 0 003.075 3.075h9.76a3.078 3.078 0 003.075-3.075v-9.76a3.078 3.078 0 00-3.075-3.075zm.882 1.835l.352-.002v2.697l-2.689.008-.009-2.697 2.346-.006zm-8.032 4.487a2.796 2.796 0 012.27-1.168c.934 0 1.761.463 2.27 1.168.332.46.53 1.023.53 1.633 0 1.543-1.256 2.8-2.8 2.8a2.803 2.803 0 01-2.8-2.8c0-.61.199-1.173.53-1.633zm8.675 6.513c0 .84-.684 1.525-1.525 1.525h-9.76c-.84 0-1.525-.684-1.525-1.525v-6.513h2.376a4.318 4.318 0 00-.32 1.633 4.355 4.355 0 004.349 4.35c2.4 0 4.35-1.952 4.35-4.35 0-.577-.116-1.128-.32-1.633h2.375v6.513z" class="S"/></g></svg><svg width="32" height="19" y="449"><g fill="#1e47b2"><use xlink:href="#C"/><use xlink:href="#C" x="17.339"/><path d="M19.014 13.107H12.12a.473.473 0 000 .944h6.894a.473.473 0 000-.944zm1.029-2.017h-4.015a.473.473 0 000 .944h4.015a.473.473 0 000-.944zm-12.687 0H1.445a.473.473 0 000 .944h5.91a.473.473 0 000-.944zm21.701-2.922l-.945-3.663a10.15 10.15 0 00-.282-1.031 4.4 4.4 0 00-.262-.627 1.69 1.69 0 00-1.352-.831h-3.52V.977A.967.967 0 0021.742 0H2.925a.967.967 0 00-.954.977v8.57a.464.464 0 00.53.467.48.48 0 00.393-.482V.977c0-.017.014-.031.031-.032h18.817c.017 0 .031.014.031.031v8.57a.464.464 0 00.53.467.48.48 0 00.393-.483v-.52h5.448c.67 0 2.759.056 2.759 1.071h-1.436a.465.465 0 00-.329.141.47.47 0 00-.133.332v1.008a1.46 1.46 0 00.417 1.04c.272.278.642.436 1.03.441h.523v2.079h-2.531a2.9 2.9 0 00-5.526 0h-.222v-3.546a.48.48 0 00-.393-.482.46.46 0 00-.372.112.473.473 0 00-.158.356v3.56H11.104a2.9 2.9 0 00-5.526 0H2.924a.031.031 0 01-.031-.031v-1.04h1.986a.475.475 0 00.472-.4.47.47 0 00-.457-.542H.474a.472.472 0 00-.014.945h1.514v1.04a.966.966 0 00.954.976h2.494v.032a2.92 2.92 0 001.446 2.577 2.926 2.926 0 004.401-2.577v-.032h11.493v.032a2.925 2.925 0 105.847 0v-.032h2.834a.466.466 0 00.461-.472v-5.041c-.006-1.943-1.647-2.231-2.848-2.389zm-6.361-5.206h3.541a.95.95 0 01.868.575.91.91 0 01.066.215l.088.281h-4.563zm0 5.1V4.974h4.856l.754 3.088zM8.341 18.146A2.046 2.046 0 016.83 14.67a2.05 2.05 0 012.236-.466 2.047 2.047 0 011.276 1.895 2.03 2.03 0 01-2 2.048zm17.34 0a2.046 2.046 0 01-1.511-3.476 2.05 2.05 0 012.236-.466 2.047 2.047 0 011.276 1.895 2.03 2.03 0 01-2 2.048zm5.294-6.049h-.523a.53.53 0 01-.524-.536v-.536h1.046z"/></g></svg><svg width="23" height="21" y="468"><path d="M22.21 6.575C21.896 3.199 19.453.75 16.395.75a5.807 5.807 0 00-4.953 2.79A5.593 5.593 0 006.608.75C3.55.75 1.108 3.199.793 6.575a5.876 5.876 0 00.183 2.213 9.457 9.457 0 002.975 4.854l7.486 6.643 7.615-6.642a9.458 9.458 0 002.975-4.855 5.889 5.889 0 00.183-2.213z" stroke="#1f49b6" class="O Y"/></svg><svg width="36" height="35" y="489"><defs><circle id="O" cx="17.5" cy="17.5" r="17.5"/><mask id="P" x="0" y="0" width="35" height="35" class="P"><use xlink:href="#O"/></mask></defs><g transform="translate(.333)" class="O Q"><use mask="url(#P)" xlink:href="#O" class="R T"/><path d="M9.947 14.647h3.1v10.807h-3.1V14.647zm1.471-1.352h-.022c-1.123 0-1.85-.826-1.85-1.872 0-1.068.749-1.878 1.894-1.878s1.847.808 1.87 1.875a1.8 1.8 0 01-1.892 1.875zm14.037 12.16h-3.517V19.86c0-1.464-.55-2.462-1.759-2.462-.925 0-1.44.673-1.68 1.324-.089.233-.075.558-.075.884v5.848h-3.483V14.646h3.483v1.696c.206-.742 1.32-1.8 3.095-1.8 2.204 0 3.936 1.555 3.936 4.902v6.01z" class="S"/></g></svg><svg width="22" height="7" y="524"><path d="M1 1h20M4 6h14" stroke="#1f49b6" class="O V W"/></svg><svg width="35" height="35" y="531"><defs><circle id="Q" cx="17.5" cy="17.5" r="17.5"/><mask id="R" x="0" y="0" width="35" height="35" class="P"><use xlink:href="#Q"/></mask></defs><g class="O Q"><use mask="url(#R)" xlink:href="#Q" class="R T"/><path d="M7.955 17.5a9.547 9.547 0 005.715 8.743c-.028-.667-.005-1.467.165-2.192l1.228-5.202s-.305-.61-.305-1.51c0-1.415.82-2.471 1.84-2.471.87 0 1.29.652 1.29 1.433 0 .873-.557 2.179-.844 3.388-.239 1.012.508 1.837 1.507 1.837 1.808 0 3.026-2.321 3.026-5.074 0-2.092-1.409-3.657-3.971-3.657-2.896 0-4.7 2.16-4.7 4.57 0 .832.246 1.42.628 1.873.178.208.202.293.138.533l-.194.765c-.064.242-.26.328-.478.24-1.333-.546-1.954-2.006-1.954-3.648 0-2.711 2.285-5.963 6.821-5.963 3.645 0 6.043 2.638 6.043 5.468 0 3.745-2.082 6.542-5.15 6.542-1.031 0-2-.557-2.332-1.19l-.672 2.625c-.201.735-.599 1.47-.96 2.044a9.518 9.518 0 002.705.391c5.271 0 9.544-4.274 9.544-9.545s-4.273-9.545-9.544-9.545A9.55 9.55 0 007.955 17.5z" class="S"/></g></svg><svg width="16" height="16" y="566"><path d="M11.287 10.67l.116-.145a6.281 6.281 0 10-.88.88l.145-.116 3.836 3.833a.44.44 0 00.619 0 .433.433 0 000-.616zm-4.745 1.28a5.407 5.407 0 115.408-5.408 5.413 5.413 0 01-5.408 5.408z" class="U X Z"/></svg><svg width="20" height="20" y="582"><path stroke="#fff" d="M14.427 13.476l.149-.185a8.021 8.021 0 10-1.124 1.124l.18-.147 4.9 4.9a.562.562 0 00.79 0 .553.553 0 000-.787l-4.895-4.905zm-6.06 1.63a6.9 6.9 0 116.907-6.9 6.913 6.913 0 01-6.907 6.9z" class="P Z"/></svg><svg width="20" height="20" y="602"><path d="M14.345 13.558l.149-.185a8.021 8.021 0 10-1.124 1.124l.18-.147 4.9 4.9a.562.562 0 00.791 0 .553.553 0 000-.787zm-6.06 1.63a6.9 6.9 0 116.907-6.9 6.913 6.913 0 01-6.907 6.9z" fill="#0038ae" stroke="#0038ae" class="Z"/></svg><svg width="14" height="22" y="622"><path d="M11.072 15.729a3.16 3.16 0 00-3.157 3.157 3.16 3.16 0 003.157 3.157 3.16 3.16 0 003.157-3.157 3.16 3.16 0 00-3.157-3.157zm0 5.421a2.264 2.264 0 11.001-4.529 2.264 2.264 0 01-.001 4.529zM5.835 8.254a.446.446 0 00.316-.131L8.814 5.46a3.153 3.153 0 004.29.201 3.15 3.15 0 00.509-4.264A3.153 3.153 0 009.396.583 3.15 3.15 0 008.281 4.73L5.522 7.492a.447.447 0 00-.096.486.45.45 0 00.412.276zM11.071.993c.916 0 1.741.552 2.092 1.398a2.26 2.26 0 01-.491 2.467 2.265 2.265 0 01-3.865-1.601A2.266 2.266 0 0111.071.993zM7.945 16.095l-2.632-2.632A3.15 3.15 0 001.57 8.414a3.15 3.15 0 00-1.09 4.15 3.15 3.15 0 004.06 1.389l2.773 2.773a.447.447 0 00.631-.631zM.993 11.07a2.264 2.264 0 114.529-.001 2.264 2.264 0 01-4.529.002z" stroke-width=".2" class="U a"/></svg><svg width="17" height="22" y="644"><path d="M16.95 18.966L15.737 4.819a.592.592 0 00-.58-.552h-2.496a4.185 4.185 0 10-8.369 0H1.8a.589.589 0 00-.58.552L0 18.966v.054a3.061 3.061 0 003.179 2.921h10.6a3.061 3.061 0 003.179-2.921.226.226 0 00-.008-.054zM8.477 1.211a3.071 3.071 0 013.015 3.055h-6.03a3.071 3.071 0 013.015-3.055zm5.3 19.517h-10.6a1.886 1.886 0 01-2.01-1.683L2.33 5.483h1.958v1.84a.585.585 0 101.17 0v-1.84h6.034v1.84a.585.585 0 101.17 0v-1.84h1.958l1.165 13.563a1.889 1.889 0 01-2.011 1.683z" fill="#1f49b6"/></svg><svg width="32" height="32" y="666"/><svg width="20" height="11" y="698"><path d="M.75 10.713h8M1.165.75h18M.75 5.732h13" class="O W X Y"/></svg><svg width="27" height="17" y="709"><path d="M5.807 13.465a.87.87 0 100 1.74.87.87 0 100-1.74zm15.805 0a.87.87 0 10.869.87.87.87 0 00-.869-.87zm3.078-6.193l-.861-3.261a8.89 8.89 0 00-.258-.918 3.89 3.89 0 00-.239-.558 1.546 1.546 0 00-1.233-.74h-3.208V.87a.87.87 0 00-.87-.87H.87A.87.87 0 000 .87v11.646a.42.42 0 00.483.416.43.43 0 00.358-.429V.87c0-.007.003-.015.008-.02S.862.842.869.842H18.02c.007 0 .015.003.02.008s.008.012.008.02v9.641a.42.42 0 00.483.416.43.43 0 00.359-.43V8.024h4.966c.61 0 2.515.05 2.515.954h-1.308a.42.42 0 00-.421.421v.9a1.32 1.32 0 001.319 1.319h.477v1.851h-2.307a2.665 2.665 0 00-5.038 0h-.2v-3.157a.43.43 0 00-.358-.429.42.42 0 00-.483.417v3.17H8.329a2.663 2.663 0 00-5.038 0H.873c-.007 0-.015-.003-.02-.008s-.008-.012-.008-.02v-.926H.486c.211 0 .172-.166.2-.375.037-.26.064-.467-.189-.467a.43.43 0 00-.429.358.42.42 0 00.417.483H.002v.926a.87.87 0 00.87.869h2.273v.028a2.665 2.665 0 105.33 0v-.028h10.476v.028a2.665 2.665 0 105.33 0v-.028h2.582a.42.42 0 00.42-.42V9.401c-.003-1.732-1.498-1.988-2.593-2.129zm-5.8-4.635h3.228a.87.87 0 01.792.512.8.8 0 01.06.191l.08.25h-4.159zm0 4.545v-2.75h4.427l.687 2.749zM5.806 16.159a1.823 1.823 0 11.697-3.509 1.823 1.823 0 01-.696 3.509zm15.805 0a1.823 1.823 0 11.697-3.509 1.823 1.823 0 01-.695 3.509zm4.826-5.386h-.474a.48.48 0 01-.477-.477v-.477h.954z" fill="#1e47b2"/></svg><svg width="50" height="50" y="726"><rect width="50" height="50" rx="5" fill="#60a9f1"/><path d="M43.315 14.394a14.467 14.467 0 01-4.16 1.141 7.275 7.275 0 003.184-4.005 14.605 14.605 0 01-4.6 1.759 7.25 7.25 0 00-12.345 6.6 20.568 20.568 0 01-14.933-7.565 7.253 7.253 0 002.238 9.67 7.245 7.245 0 01-3.281-.909v.09a7.252 7.252 0 005.81 7.1 7.338 7.338 0 01-1.909.254 6.954 6.954 0 01-1.364-.135 7.248 7.248 0 006.766 5.031 14.535 14.535 0 01-9 3.1 15.4 15.4 0 01-1.722-.098 20.478 20.478 0 0011.1 3.259c13.327 0 20.611-11.038 20.611-20.611l-.024-.938a14.467 14.467 0 003.629-3.743z" class="P"/></svg><svg width="36" height="35" y="776"><defs><circle id="S" cx="17.5" cy="17.5" r="17.5"/><mask id="T" x="0" y="0" width="35" height="35" class="P"><use xlink:href="#S"/></mask></defs><g transform="translate(.667)" class="O Q"><use mask="url(#T)" xlink:href="#S" class="R T"/><path d="M24.282 13.4a3.588 3.588 0 001.506-1.999 6.646 6.646 0 01-2.176.877 3.336 3.336 0 00-2.502-1.142c-1.892 0-3.426 1.619-3.426 3.615 0 .283.029.559.088.823-2.848-.151-5.372-1.589-7.064-3.777a3.758 3.758 0 00-.463 1.818c0 1.253.605 2.36 1.524 3.01a3.304 3.304 0 01-1.553-.453v.045c0 1.752 1.18 3.213 2.75 3.544a3.19 3.19 0 01-.904.127c-.22 0-.436-.022-.644-.064.436 1.435 1.701 2.482 3.201 2.51a6.653 6.653 0 01-5.074 1.497 9.345 9.345 0 005.254 1.624c6.304 0 9.75-5.508 9.75-10.285 0-.157-.002-.313-.009-.467a7.164 7.164 0 001.71-1.872 6.568 6.568 0 01-1.968.569z" class="S"/></g></svg><svg width="18" height="21" y="811"><path d="M8.831 11.507h.136a3.857 3.857 0 003-1.349c1.637-1.919 1.365-5.21 1.335-5.524a4.547 4.547 0 00-2.064-4.01A4.59 4.59 0 008.95 0h-.072a4.59 4.59 0 00-2.293.606 4.55 4.55 0 00-2.088 4.029c-.03.314-.3 3.6 1.335 5.524a3.84 3.84 0 002.999 1.348zM5.637 4.745V4.71c.14-3.171 2.305-3.511 3.232-3.511h.051c1.148.027 3.1.513 3.232 3.511a.103.103 0 000 .035c0 .031.3 3.038-1.05 4.621a2.737 2.737 0 01-2.19.946h-.043a2.73 2.73 0 01-2.186-.946c-1.34-1.574-1.05-4.594-1.046-4.621zM17.81 16.549v-.124c-.026-.876-.082-2.923-1.964-3.578l-.043-.013a12.41 12.41 0 01-3.6-1.672.58.58 0 00-.815.146.6.6 0 00.143.831 13.4 13.4 0 003.959 1.844c1.01.367 1.123 1.468 1.153 2.477a.9.9 0 000 .111 8.23 8.23 0 01-.091 1.367 15.71 15.71 0 01-7.645 1.813 15.8 15.8 0 01-7.649-1.818 7.75 7.75 0 01-.091-1.367v-.11c.03-1.008.143-2.11 1.153-2.477a13.52 13.52 0 003.959-1.844.6.6 0 00.143-.831.58.58 0 00-.815-.146 12.27 12.27 0 01-3.6 1.672l-.043.013C.082 13.502.026 15.55 0 16.421c.002.037.002.074 0 .111v.013a6.91 6.91 0 00.221 2 .567.567 0 00.225.279 16.174 16.174 0 008.465 2.114 16.214 16.214 0 008.465-2.114.59.59 0 00.225-.279 7.25 7.25 0 00.209-1.996z" fill="#0038ae"/></svg><svg width="50" height="50" y="832"><rect width="50" height="50" rx="5" fill="#64b161" class="a"/><use xlink:href="#D" class="P"/><path d="M7.474 42.543l2.536-9.261A17.88 17.88 0 0134.444 8.879a17.88 17.88 0 01-8.943 33.355h-.008a17.876 17.876 0 01-8.542-2.175zm0 0" fill="#64b161" class="a"/><g class="P"><use xlink:href="#D"/><path d="M20.875 16.603c-.347-.77-.712-.786-1.041-.8l-.887-.011a1.7 1.7 0 00-1.234.579 5.187 5.187 0 00-1.62 3.859 9 9 0 001.89 4.786c.231.309 3.2 5.13 7.9 6.984 3.909 1.542 4.7 1.235 5.552 1.158a4.672 4.672 0 003.123-2.2 3.861 3.861 0 00.27-2.2c-.116-.193-.424-.308-.887-.54s-2.737-1.351-3.162-1.505-.733-.231-1.041.232-1.195 1.5-1.465 1.813-.54.348-1 .116a12.65 12.65 0 01-3.721-2.3 13.94 13.94 0 01-2.574-3.2c-.27-.463 0-.691.2-.944a13.95 13.95 0 001.156-1.582.853.853 0 00-.038-.811c-.111-.231-1.01-2.519-1.421-3.434zm0 0" class="Q"/></g></svg><svg width="24" height="19.199" y="883"><path fill="#4e8bfd" d="M23.517 17.04L13.202 9.303V8.21a4.2 4.2 0 10-5.4-4.007h2.4a1.8 1.8 0 111.762 1.8 1.17 1.17 0 00-1.162 1.187v2.113L.482 17.04a1.2 1.2 0 00.72 2.163h21.6a1.2 1.2 0 00.715-2.163zm-18.715-.237l7.2-5.4 7.2 5.4z"/></svg><svg width="14.153" height="24.828" y="904"><path fill="#555" d="M13.643 13.643L2.968 24.318a1.739 1.739 0 01-2.459-2.459l9.446-9.446L.509 2.968A1.739 1.739 0 012.968.509l10.676 10.676a1.738 1.738 0 010 2.458z"/></svg><svg width="24" height="19" y="930"><defs><style>.cls-10{fill:#fff;stroke:#4e8bfd;stroke-linecap:round;stroke-width:2px}.cls-11{stroke:none}.cls-12{fill:none}</style></defs><g id="Rectangle_2523" class="cls-10"><rect width="21" height="19" class="cls-11" rx="1"/><path d="M1 1h19v17H1z" class="cls-12"/></g><g id="Rectangle_2524" class="cls-10" transform="translate(12 4)"><rect width="12" height="11" class="cls-11" rx="1"/><path d="M1 1h10v9H1z" class="cls-12"/></g><circle id="Ellipse_254" cx="1.5" cy="1.5" r="1.5" fill="#4e8bfd" transform="translate(16.154 8)"/></svg><svg width="24" height="24" y="952"><defs><style>.cls-1{fill:none;stroke:#4e8bfd;stroke-width:2px;stroke-linecap:round}.cls-4{stroke:none}</style></defs><g id="stok_icon" transform="translate(-985 -1603.5)"><path id="Line_415" d="M0 0h21" class="cls-1" transform="translate(986.5 1604.5)"/><g id="Rectangle_2516" fill="#fff" stroke="#4e8bfd" stroke-linecap="round" stroke-width="2" transform="translate(987 1614)"><rect width="14" height="13" class="cls-4" rx="1"/><path fill="none" d="M1 1h12v11H1z"/></g><path id="Line_416" d="M0 0v11" class="cls-1" transform="translate(1005.5 1615.5)"/><g id="Path_2062" fill="#fff" stroke-linecap="round"><path d="M20 10H2A2.003 2.003 0 01.002 8.09l.979-4.894L1 3.1V3c0-1.103.897-2 2-2h16c1.103 0 2 .897 2 2v.099l.02.097.978 4.893A2.002 2.002 0 0120 10z" class="cls-4" transform="translate(986 1607)"/><path fill="#4e8bfd" d="M3 2c-.551 0-1 .449-1 1v.198l-.039.194-.95 4.753A1 1 0 002 9h18c.502 0 .919-.372.99-.855l-.951-4.753L20 3.198V3c0-.551-.449-1-1-1H3m0-2h16a3 3 0 013 3l1 5a3 3 0 01-3 3H2a3 3 0 01-3-3l1-5a3 3 0 013-3z" transform="translate(986 1607)"/></g></g></svg><svg width="24" height="24" y="978"><defs><style>.cls-14{fill:#fff;stroke:#4e8bfd;stroke-width:1.5px}.cls-15{fill:none}.cls-16{stroke:none}</style></defs><g id="teslimat_icon" transform="translate(.013 .013)"><g id="Group_5933" transform="translate(.153 .153)"><g id="Rectangle_888" class="cls-14" transform="translate(2.834 5.835)"><rect width="18" height="15" class="cls-16" rx="1"/><rect width="16.5" height="13.5" x=".75" y=".75" class="cls-15" rx=".25"/></g><g id="Rectangle_889" class="cls-14" transform="translate(-.166 -.165)"><rect width="24" height="6" class="cls-16" rx="1"/><rect width="22.5" height="4.5" x=".75" y=".75" class="cls-15" rx=".25"/></g><g id="Rectangle_890" class="cls-14" transform="translate(10.296 6.088)"><rect width="3.6" height="4.5" class="cls-16" rx="1"/><rect width="2.1" height="3" x=".75" y=".75" class="cls-15" rx=".25"/></g></g><g id="Group_5925" transform="translate(9.836 9.836)"><circle id="Ellipse_2" cx="7" cy="7" r="7" fill="#fff" transform="translate(.152 .152)"/><g id="Ellipse_10" fill="none" stroke="#4e8bfd" stroke-width="1.5" transform="translate(1.152 1.152)"><circle cx="6" cy="6" r="6" class="cls-16"/><circle cx="6" cy="6" r="5.25" class="cls-15"/></g><path id="Path_2058" fill="#4e8bfd" stroke="#4e8bfd" stroke-width=".2" d="M5.254 5.574c-.081.106-.137.125-.137.035v-.161a.421.421 0 00-.842 0v1.443a.421.421 0 00.421.421h1.446a.421.421 0 000-.842h-.158c-.086 0-.11-.1-.037-.209a1.807 1.807 0 111.511 2.8.481.481 0 000 .962 2.77 2.77 0 10-2.2-4.447z"/></g></g></svg><svg width="20" height="24" y="1004"><defs><style>.cls-17{fill:#4e8bfd}</style></defs><g id="yıkama_icon" transform="translate(-988 -1468)"><circle id="Ellipse_251" cx="1" cy="1" r="1" class="cls-17" transform="translate(991.186 1472)"/><circle id="Ellipse_252" cx="1" cy="1" r="1" class="cls-17" transform="translate(994.186 1472)"/><path id="Path_2065" d="M13.4 21a6.212 6.212 0 006.4-6 6.212 6.212 0 00-6.4-6A6.212 6.212 0 007 15a6.212 6.212 0 006.4 6zm3.021-8.833a3.838 3.838 0 010 5.664 4.484 4.484 0 01-6.041 0z" class="cls-17" transform="translate(985 1467.401)"/><g id="Rectangle_2517" fill="none" stroke="#4e8bfd" stroke-width="2" transform="translate(988 1468)"><rect width="20" height="24" stroke="none" rx="1"/><path d="M1 1h18v22H1z"/></g></g></svg></svg>

